<?xml version="1.0" encoding="UTF-8" standalone="no"?>
<!-- Created with Inkscape (http://www.inkscape.org/) -->

<svg
   xmlns:dc="http://purl.org/dc/elements/1.1/"
   xmlns:cc="http://creativecommons.org/ns#"
   xmlns:rdf="http://www.w3.org/1999/02/22-rdf-syntax-ns#"
   xmlns:svg="http://www.w3.org/2000/svg"
   xmlns="http://www.w3.org/2000/svg"
   xmlns:xlink="http://www.w3.org/1999/xlink"
   xmlns:sodipodi="http://sodipodi.sourceforge.net/DTD/sodipodi-0.dtd"
   xmlns:inkscape="http://www.inkscape.org/namespaces/inkscape"
   id="svg2"
   sodipodi:docname="Sorry-we-are-Closed-Sign.svg"
   viewBox="0 0 99.845994 84.653261"
   version="1.1"
   inkscape:version="0.92.1 r15371"
   width="106.5024"
   height="90.296814"
   inkscape:export-filename="C:\Users\Nivatius\Downloads\sturasave.png"
   inkscape:export-xdpi="279.83624"
   inkscape:export-ydpi="279.83624">
  <defs
     id="defs4">
    <linearGradient
       inkscape:collect="always"
       id="linearGradient2773">
      <stop
         style="stop-color:#ffffff;stop-opacity:0.74"
         offset="0"
         id="stop2769" />
      <stop
         style="stop-color:#a6a6a6;stop-opacity:1"
         offset="1"
         id="stop2771" />
    </linearGradient>
    <radialGradient
       inkscape:collect="always"
       xlink:href="#linearGradient2773"
       id="radialGradient2777"
       gradientUnits="userSpaceOnUse"
       gradientTransform="matrix(0.6871875,0.0499421,-0.04089262,0.56266949,118.7172,307.34461)"
       cx="299.93646"
       cy="738.12604"
       fx="299.93646"
       fy="738.12604"
       r="6.4807739" />
  </defs>
  <sodipodi:namedview
     id="base"
     fit-margin-left="1.2"
     inkscape:zoom="1.9492187"
     borderopacity="1.0"
     inkscape:current-layer="layer1"
     inkscape:cx="49.333958"
     inkscape:window-y="-8"
     inkscape:window-maximized="1"
     showgrid="false"
     fit-margin-right="1.2"
     showguides="true"
     bordercolor="#666666"
     inkscape:window-x="-8"
     inkscape:guide-bbox="true"
     fit-margin-bottom="1.2"
     inkscape:window-width="1366"
     inkscape:pageopacity="0.0"
     inkscape:pageshadow="2"
     pagecolor="#ffffff"
     inkscape:cy="24.100342"
     inkscape:document-units="px"
     inkscape:window-height="706"
     fit-margin-top="1.2"
     inkscape:snap-global="false"
     inkscape:snap-center="true">
    <sodipodi:guide
       id="guide3001"
       position="-10.197212,-134.37791"
       orientation="0,1"
       inkscape:locked="false" />
    <inkscape:grid
       type="xygrid"
       id="grid2650"
       originx="-12.853521"
       originy="-135.95197" />
  </sodipodi:namedview>
  <g
     id="layer1"
     inkscape:label="Capa 1"
     inkscape:groupmode="layer"
     transform="translate(-274.55352,-694.51477)">
    <g
       id="g2891"
       transform="translate(-17.795591,-39.438877)">
      <path
         sodipodi:nodetypes="cccc"
         inkscape:connector-curvature="0"
         id="path2691"
         d="m 296.63198,772.87691 c 6.92015,-7.1648 46.23621,-26.26775 64.95452,-34.67201 m 0,0 c 2.61282,3.61714 14.95607,10.05436 20.47289,17.05919"
         style="fill:none;fill-rule:evenodd;stroke:#000000;stroke-width:0.9375px;stroke-linecap:butt;stroke-linejoin:miter;stroke-opacity:1" />
      <rect
         transform="rotate(-10.164394)"
         y="810.20746"
         x="154.00362"
         height="46.810131"
         width="88.540268"
         id="rect14982"
         style="opacity:1;fill:#ffffff;fill-opacity:1;stroke:#800000;stroke-width:2.18463421;stroke-linecap:round;stroke-linejoin:round;stroke-miterlimit:4;stroke-dasharray:none;stroke-opacity:1" />
      <g
         id="flowRoot14935"
         style="font-style:normal;font-variant:normal;font-weight:normal;font-stretch:normal;font-size:85.33333588px;line-height:25px;font-family:Gabriola;-inkscape-font-specification:'Gabriola, Normal';font-variant-ligatures:normal;font-variant-caps:normal;font-variant-numeric:normal;font-feature-settings:normal;text-align:start;letter-spacing:0px;word-spacing:0px;writing-mode:lr-tb;text-anchor:start;fill:#000000;fill-opacity:1;stroke:none;stroke-width:1px;stroke-linecap:butt;stroke-linejoin:miter;stroke-opacity:1"
         transform="matrix(0.11011605,-0.09311785,0.09311785,0.11011605,340.31087,706.63582)"
         aria-label="Sorry">
        <path
           id="path2855"
           d="m -544.90885,238.99284 q -0.0625,0.5 -0.0833,0.95833 -0.0208,0.45834 -0.0208,0.91667 0,2.375 0.625,4.04167 0.64583,1.64583 1.8125,2.6875 1.1875,1.04166 2.83333,1.52083 1.66667,0.45833 3.72917,0.45833 2.0625,0 3.91667,-0.5625 1.85416,-0.58333 3.25,-1.72916 1.41666,-1.14584 2.25,-2.83334 0.83333,-1.70833 0.83333,-3.9375 0,-1.41666 -0.39583,-2.58333 -0.375,-1.1875 -1.0625,-2.16667 -0.66667,-1 -1.60417,-1.83333 -0.91667,-0.83333 -2.02083,-1.5625 -1.08334,-0.75 -2.29167,-1.41667 -1.20833,-0.6875 -2.45833,-1.375 -1.3125,-0.70833 -2.625,-1.45833 -1.29167,-0.75 -2.47917,-1.60417 -1.1875,-0.85416 -2.20833,-1.83333 -1.02084,-1 -1.77084,-2.20833 -0.72916,-1.20834 -1.16666,-2.66667 -0.41667,-1.45833 -0.41667,-3.22917 0,-2.20833 0.5625,-4.10417 0.5625,-1.91666 1.5625,-3.5 1.02083,-1.60416 2.41667,-2.85416 1.41666,-1.25 3.08333,-2.10417 1.6875,-0.875 3.58333,-1.3125 1.91667,-0.45833 3.91667,-0.45833 0.91667,0 1.95833,0.125 1.04167,0.10416 2.08334,0.33333 1.04166,0.22917 1.97916,0.5625 0.95834,0.3125 1.6875,0.72917 0.72917,0.41666 1.16667,0.91666 0.4375,0.5 0.4375,1.0625 0,0.60417 -0.0208,1.52084 -0.0208,0.89583 -0.0625,2.0625 -0.0208,1.14583 -0.0833,2.52083 -0.0625,1.35417 -0.14583,2.875 l -2.10417,-0.10417 q 0.0625,-0.75 0.0625,-1.4375 0,-2.0625 -0.625,-3.625 -0.60416,-1.58333 -1.72916,-2.625 -1.10417,-1.0625 -2.6875,-1.58333 -1.5625,-0.54167 -3.47917,-0.54167 -1.91667,0 -3.58333,0.64584 -1.64584,0.625 -2.85417,1.77083 -1.20833,1.125 -1.89583,2.6875 -0.6875,1.5625 -0.6875,3.4375 0,1.52083 0.39583,2.77084 0.39583,1.22916 1.08333,2.27083 0.70834,1.04167 1.66667,1.89583 0.95833,0.85417 2.08333,1.625 1.125,0.75 2.375,1.4375 1.25,0.6875 2.52084,1.375 1.3125,0.6875 2.60416,1.41667 1.3125,0.72917 2.5,1.5625 1.1875,0.8125 2.1875,1.79167 1.02084,0.95833 1.75,2.14583 0.75,1.16667 1.16667,2.58333 0.4375,1.41667 0.4375,3.14584 0,2.85416 -0.79167,5.0625 -0.77083,2.20833 -2.08333,3.85416 -1.3125,1.625 -3.02083,2.75 -1.6875,1.125 -3.52084,1.8125 -1.83333,0.6875 -3.66666,0.97917 -1.83334,0.3125 -3.39584,0.3125 -2.0625,0 -3.875,-0.29167 -1.8125,-0.27083 -3.1875,-0.72916 -1.35416,-0.45834 -2.14583,-1.04167 -0.77083,-0.60417 -0.77083,-1.22917 0,-1.39583 0.0833,-4 0.10417,-2.60416 0.3125,-6.1875 z"
           inkscape:connector-curvature="0" />
        <path
           id="path2857"
           d="m -516.63802,239.26367 q 0,-2.10416 0.4375,-4.27083 0.4375,-2.16667 1.29167,-4.1875 0.85416,-2.04167 2.10416,-3.8125 1.27084,-1.79167 2.91667,-3.125 1.64583,-1.33333 3.66667,-2.10417 2.02083,-0.77083 4.39583,-0.77083 2.66667,0 4.70833,1.125 2.0625,1.125 3.45834,2.97917 1.39583,1.83333 2.10416,4.1875 0.72917,2.35416 0.72917,4.8125 0,2.10416 -0.4375,4.27083 -0.4375,2.16667 -1.3125,4.20833 -0.85417,2.02084 -2.125,3.8125 -1.25,1.77084 -2.89583,3.10417 -1.64584,1.33333 -3.66667,2.10417 -2.02083,0.77083 -4.39583,0.77083 -2.66667,0 -4.72917,-1.125 -2.04167,-1.125 -3.4375,-2.95833 -1.375,-1.85417 -2.10417,-4.20834 -0.70833,-2.35416 -0.70833,-4.8125 z m 4.97917,-1.97916 q 0,1.41666 0.20833,2.875 0.22917,1.45833 0.6875,2.8125 0.45833,1.35416 1.125,2.54166 0.6875,1.16667 1.60417,2.04167 0.9375,0.875 2.08333,1.375 1.16667,0.5 2.5625,0.5 1.52083,0 2.66667,-0.64583 1.16666,-0.66667 2,-1.75 0.85416,-1.08334 1.39583,-2.47917 0.5625,-1.39583 0.89583,-2.875 0.33334,-1.5 0.45834,-2.95833 0.14583,-1.45834 0.14583,-2.6875 0,-1.4375 -0.22917,-2.875 -0.20833,-1.45834 -0.66666,-2.79167 -0.45834,-1.35417 -1.14584,-2.52083 -0.66666,-1.1875 -1.60416,-2.04167 -0.91667,-0.875 -2.08334,-1.375 -1.14583,-0.5 -2.54166,-0.5 -1.52084,0 -2.6875,0.64583 -1.14584,0.64584 -2,1.72917 -0.83334,1.08333 -1.39584,2.47917 -0.54166,1.39583 -0.875,2.875 -0.33333,1.47916 -0.47916,2.95833 -0.125,1.45833 -0.125,2.66667 z"
           inkscape:connector-curvature="0" />
        <path
           id="path2859"
           d="m -482.97135,251.78451 -0.33334,-0.0208 q 0.16667,-1.97916 0.3125,-4.3125 0.14584,-2.33333 0.27084,-4.72916 0.125,-2.41667 0.20833,-4.77084 0.10417,-2.375 0.16667,-4.41666 0.0833,-2.0625 0.10416,-3.6875 0.0417,-1.625 0.0417,-2.5625 0,-0.77084 -0.0625,-1.33334 -0.0625,-0.5625 -0.29167,-0.9375 -0.20833,-0.375 -0.625,-0.54166 -0.41666,-0.1875 -1.125,-0.1875 -0.35416,0 -0.72916,0.0417 -0.375,0.0417 -0.83334,0.125 -0.45833,0.0833 -1.04166,0.22917 -0.5625,0.125 -1.3125,0.3125 l -0.3125,-1.5 q 3.45833,-1.25 5.60416,-1.75 2.14584,-0.52083 2.89584,-0.52083 1.375,0 1.95833,0.8125 0.60417,0.79166 0.60417,2.375 0,0.14583 -0.0417,0.85416 -0.0417,0.70834 -0.125,1.85417 -0.0625,1.125 -0.16667,2.625 -0.10416,1.5 -0.25,3.22917 -0.125,1.70833 -0.29166,3.58333 -0.16667,1.85417 -0.35417,3.70833 l 0.20833,0.0208 q 1,-4.08334 2.25,-7.60417 1.27084,-3.54167 2.83334,-6.14583 1.58333,-2.60417 3.45833,-4.08334 1.89583,-1.5 4.14583,-1.5 0.79167,0 1.47917,0.25 0.6875,0.25 1.1875,0.70834 0.5,0.4375 0.79167,1.0625 0.29166,0.60416 0.29166,1.33333 0,0.9375 -0.41666,1.8125 -0.39584,0.85417 -1.27084,1.52083 h -0.16666 q -0.875,-0.72916 -1.66667,-1.04166 -0.77083,-0.33334 -1.64583,-0.33334 -0.9375,0 -1.8125,0.35417 -0.875,0.35417 -1.60417,1.02083 -1.1875,1.08334 -2.20833,2.875 -1.02084,1.77084 -1.875,3.9375 -0.83334,2.16667 -1.52084,4.5625 -0.66666,2.375 -1.16666,4.64584 -0.47917,2.25 -0.79167,4.25 -0.29167,1.97916 -0.41667,3.33333 z"
           inkscape:connector-curvature="0" />
        <path
           id="path2861"
           d="m -459.42968,251.78451 -0.33334,-0.0208 q 0.14584,-1.97916 0.27084,-4.33333 0.14583,-2.375 0.25,-4.91667 0.125,-2.54166 0.20833,-5.16666 0.10417,-2.64584 0.16667,-5.16667 0.0833,-2.52083 0.125,-4.83333 0.0625,-2.33334 0.0833,-4.27084 0,-0.625 0.27083,-1.02083 0.27084,-0.39583 0.66667,-0.625 0.39583,-0.22917 0.85417,-0.3125 0.45833,-0.0833 0.83333,-0.0833 0.79167,0 1.4375,0.1875 0.64583,0.16666 1.25,0.45833 -0.29167,1.625 -0.52083,3.75 -0.22917,2.10417 -0.45834,4.52083 -0.20833,2.41667 -0.41666,5.04167 -0.1875,2.625 -0.41667,5.27083 l 0.20833,0.0208 q 1,-4.08334 2.25,-7.60417 1.27084,-3.54167 2.83334,-6.14583 1.58333,-2.60417 3.45833,-4.08334 1.89583,-1.5 4.14583,-1.5 0.79167,0 1.47917,0.25 0.6875,0.25 1.1875,0.70834 0.5,0.4375 0.79167,1.0625 0.29166,0.60416 0.29166,1.33333 0,0.9375 -0.41666,1.8125 -0.39584,0.85417 -1.27084,1.52083 h -0.16666 q -0.875,-0.72916 -1.66667,-1.04166 -0.77083,-0.33334 -1.64583,-0.33334 -0.9375,0 -1.8125,0.35417 -0.875,0.35417 -1.60417,1.02083 -1.1875,1.08334 -2.20833,2.875 -1.02084,1.77084 -1.875,3.9375 -0.83334,2.16667 -1.52084,4.5625 -0.66666,2.375 -1.16666,4.64584 -0.47917,2.25 -0.79167,4.25 -0.29167,1.97916 -0.41667,3.33333 z"
           inkscape:connector-curvature="0" />
        <path
           id="path2863"
           d="m -432.63802,222.11784 q 0.33334,0.77083 0.75,1.91667 0.4375,1.125 0.91667,2.47916 0.5,1.35417 1,2.85417 0.5,1.5 0.95833,2.97917 0.375,1.25 0.875,2.89583 0.5,1.625 1,3.41667 0.52084,1.77083 1,3.54166 0.47917,1.75 0.8125,3.25 1.04167,-2.72916 2.14584,-5.625 1.125,-2.91666 2.27083,-5.85416 1.14583,-2.9375 2.29167,-5.8125 1.14583,-2.89584 2.22916,-5.58334 0.1875,-0.45833 0.5,-0.75 0.33334,-0.29166 0.72917,-0.45833 0.39584,-0.1875 0.8125,-0.25 0.4375,-0.0833 0.85417,-0.0833 0.6875,0 1.33333,0.20833 0.64584,0.1875 1.22917,0.47917 -0.9375,1.52083 -1.95833,3.39583 -1,1.85417 -2.06251,3.97917 -1.0625,2.10416 -2.14583,4.39583 -1.0625,2.29167 -2.125,4.6875 -1.0625,2.375 -2.10417,4.79167 -1.02083,2.39583 -1.97916,4.72916 -0.97917,2.35417 -1.85417,4.64584 -0.875,2.3125 -1.70833,4.45833 -0.83334,2.16667 -1.64584,4.14583 -0.79166,2 -1.625,3.72917 -0.79166,1.60417 -1.6875,2.97917 -0.89583,1.39583 -1.97916,2.39583 -1.08334,1.02083 -2.39584,1.60417 -1.29166,0.58333 -2.875,0.58333 -0.97916,0 -1.77083,-0.27083 -0.79167,-0.25 -1.33333,-0.6875 -0.54167,-0.4375 -0.83334,-1.02084 -0.29166,-0.5625 -0.29166,-1.1875 0,-0.6875 0.41666,-1.4375 0.39584,-0.72916 1.0625,-1.10416 0.875,0.54166 1.77084,0.77083 0.89583,0.22917 1.60416,0.22917 1.70834,0 3.02084,-0.91667 1.3125,-0.91667 2.47916,-2.77083 1.16667,-1.85417 2.33334,-4.64584 1.1875,-2.77083 2.625,-6.52083 l 0.41666,-1.10417 -0.8125,-0.10416 q -1.0625,-4.16667 -2.25,-8.0625 -1.1875,-3.91667 -2.45833,-7.8125 -1.02083,-3.125 -2.10417,-6.08334 -1.0625,-2.95833 -2.125,-5.64583 -0.14583,-0.35417 -0.20833,-0.5625 -0.0417,-0.20833 -0.0417,-0.375 0,-0.60417 0.47917,-1.04167 0.5,-0.4375 1.6875,-0.4375 0.54167,0 1.20833,0.125 0.6875,0.125 1.5625,0.54167 z"
           inkscape:connector-curvature="0" />
      </g>
      <g
         id="text14945"
         style="font-style:normal;font-variant:normal;font-weight:normal;font-stretch:normal;font-size:12.25414371px;line-height:3.59008121px;font-family:Arial;-inkscape-font-specification:Arial;font-variant-ligatures:normal;font-variant-caps:normal;font-variant-numeric:normal;font-feature-settings:normal;text-align:start;letter-spacing:0px;word-spacing:0px;writing-mode:lr-tb;text-anchor:start;fill:#000000;fill-opacity:1;stroke:none;stroke-width:0.14360327px;stroke-linecap:butt;stroke-linejoin:miter;stroke-opacity:1"
         transform="rotate(-10.164394,-6.3699743,10.335139)"
         aria-label="We're">
        <path
           inkscape:connector-curvature="0"
           id="path2844"
           style="font-style:normal;font-variant:normal;font-weight:normal;font-stretch:normal;font-family:Aparajita;-inkscape-font-specification:Aparajita;stroke-width:0.14360327px"
           d="m 197.09973,817.57958 v 0.1795 q -0.25131,0 -0.41286,0.0957 -0.16156,0.0897 -0.30516,0.34105 -0.0957,0.16754 -0.29917,0.80179 l -1.82496,5.26545 h -0.19147 l -1.48989,-4.17646 -1.47791,4.17646 h -0.17352 l -1.93865,-5.42102 q -0.2154,-0.61031 -0.27524,-0.71802 -0.0957,-0.18548 -0.26327,-0.27524 -0.16754,-0.0897 -0.44876,-0.0897 v -0.1795 h 2.41732 v 0.1795 h -0.11368 q -0.25729,0 -0.39491,0.11967 -0.13164,0.11369 -0.13164,0.27524 0,0.16754 0.20942,0.77785 l 1.28645,3.66188 1.083,-3.1114 -0.19147,-0.55048 -0.15557,-0.43679 q -0.10172,-0.24532 -0.22737,-0.42483 -0.0598,-0.0957 -0.14958,-0.15557 -0.11967,-0.0898 -0.24533,-0.12565 -0.0898,-0.0299 -0.2872,-0.0299 v -0.1795 h 2.54297 v 0.1795 h -0.17352 q -0.26926,0 -0.39491,0.11967 -0.12565,0.11369 -0.12565,0.31114 0,0.24532 0.22139,0.85564 l 1.25054,3.54819 1.23858,-3.59606 q 0.2154,-0.59835 0.2154,-0.82572 0,-0.11368 -0.0718,-0.20942 -0.0658,-0.0957 -0.17352,-0.13762 -0.18549,-0.0658 -0.47868,-0.0658 v -0.1795 z" />
        <path
           inkscape:connector-curvature="0"
           id="path2846"
           style="font-style:normal;font-variant:normal;font-weight:normal;font-stretch:normal;font-family:Aparajita;-inkscape-font-specification:Aparajita;stroke-width:0.14360327px"
           d="m 198.22462,821.36113 q 0,0.98727 0.47867,1.54373 0.48467,0.55647 1.13088,0.55647 0.43679,0 0.75392,-0.23336 0.3231,-0.23934 0.53851,-0.81973 l 0.14959,0.0957 q -0.10172,0.65818 -0.58638,1.20268 -0.48466,0.5445 -1.22063,0.5445 -0.7958,0 -1.36423,-0.6163 -0.56245,-0.62228 -0.56245,-1.66939 0,-1.13088 0.5804,-1.76512 0.58039,-0.63425 1.45996,-0.63425 0.74195,0 1.21465,0.49064 0.47868,0.48466 0.47868,1.3044 z m 0,-0.27524 h 2.04634 q -0.0239,-0.42483 -0.10172,-0.59835 -0.11966,-0.26925 -0.359,-0.42482 -0.23934,-0.15557 -0.49663,-0.15557 -0.40089,0 -0.71802,0.31114 -0.31712,0.31114 -0.37097,0.8676 z" />
        <path
           inkscape:connector-curvature="0"
           id="path2848"
           style="font-style:normal;font-variant:normal;font-weight:normal;font-stretch:normal;font-family:Aparajita;-inkscape-font-specification:Aparajita;stroke-width:0.14360327px"
           d="m 202.31731,820.2482 -0.25729,-1.43004 q -0.11369,-0.59237 -0.11369,-0.79581 0,-0.31114 0.12566,-0.44876 0.12565,-0.1436 0.34106,-0.1436 0.22138,0 0.359,0.1436 0.14361,0.14361 0.14361,0.37696 0,0.17352 -0.12566,0.87359 l -0.25729,1.42406 z" />
        <path
           inkscape:connector-curvature="0"
           id="path2850"
           style="font-style:normal;font-variant:normal;font-weight:normal;font-stretch:normal;font-family:Aparajita;-inkscape-font-specification:Aparajita;stroke-width:0.14360327px"
           d="m 204.9261,819.57207 v 0.99326 q 0.55646,-0.99326 1.13686,-0.99326 0.26926,0 0.43679,0.16156 0.17352,0.16155 0.17352,0.37097 0,0.19147 -0.12565,0.32311 -0.11967,0.12565 -0.29319,0.12565 -0.17352,0 -0.38294,-0.16155 -0.20942,-0.16754 -0.30516,-0.16754 -0.0897,0 -0.19147,0.0957 -0.2154,0.19745 -0.44876,0.64621 v 2.11815 q 0,0.36499 0.0957,0.55048 0.0598,0.13163 0.2154,0.22139 0.16156,0.0838 0.46073,0.0838 v 0.17353 H 203.4422 V 823.94 q 0.33508,0 0.49663,-0.1077 0.11967,-0.0778 0.16754,-0.24532 0.0239,-0.0778 0.0239,-0.46671 V 821.409 q 0,-0.76589 -0.0299,-0.91547 -0.0299,-0.14959 -0.11368,-0.21541 -0.0838,-0.0658 -0.20942,-0.0658 -0.14959,0 -0.33508,0.0718 l -0.0539,-0.17353 1.33431,-0.53851 z" />
        <path
           inkscape:connector-curvature="0"
           id="path2852"
           style="font-style:normal;font-variant:normal;font-weight:normal;font-stretch:normal;font-family:Aparajita;-inkscape-font-specification:Aparajita;stroke-width:0.14360327px"
           d="m 207.65456,821.36113 q 0,0.98727 0.47868,1.54373 0.48466,0.55647 1.13088,0.55647 0.43679,0 0.75391,-0.23336 0.32311,-0.23934 0.53852,-0.81973 l 0.14958,0.0957 q -0.10172,0.65818 -0.58638,1.20268 -0.48466,0.5445 -1.22063,0.5445 -0.7958,0 -1.36423,-0.6163 -0.56244,-0.62228 -0.56244,-1.66939 0,-1.13088 0.58039,-1.76512 0.5804,-0.63425 1.45997,-0.63425 0.74195,0 1.21464,0.49064 0.47868,0.48466 0.47868,1.3044 z m 0,-0.27524 h 2.04635 q -0.0239,-0.42483 -0.10172,-0.59835 -0.11967,-0.26925 -0.35901,-0.42482 -0.23934,-0.15557 -0.49663,-0.15557 -0.40089,0 -0.71801,0.31114 -0.31713,0.31114 -0.37098,0.8676 z" />
      </g>
      <g
         id="text14949"
         style="font-style:normal;font-variant:normal;font-weight:normal;font-stretch:normal;font-size:31.38777351px;line-height:9.19563675px;font-family:Arial;-inkscape-font-specification:Arial;font-variant-ligatures:normal;font-variant-caps:normal;font-variant-numeric:normal;font-feature-settings:normal;text-align:start;letter-spacing:0px;word-spacing:0px;writing-mode:lr-tb;text-anchor:start;fill:#000000;fill-opacity:1;stroke:none;stroke-width:0.36782548px;stroke-linecap:butt;stroke-linejoin:miter;stroke-opacity:1"
         transform="matrix(0.6958117,-0.12474996,0.2496414,1.392413,0,0)"
         aria-label="CLOSED">
        <path
           id="path2831"
           style="font-style:normal;font-variant:normal;font-weight:bold;font-stretch:normal;font-size:31.38777351px;font-family:Aparajita;-inkscape-font-specification:'Aparajita, Bold';font-variant-ligatures:normal;font-variant-caps:normal;font-variant-numeric:normal;font-feature-settings:normal;text-align:start;writing-mode:lr-tb;text-anchor:start;fill:#ff0000;stroke-width:0.36782548px"
           d="m 246.49757,584.3734 v 5.80858 h -0.47511 q -0.53641,-2.26826 -2.02304,-3.47901 -1.48663,-1.21076 -3.35641,-1.21076 -1.56326,0 -2.8813,0.90423 -1.30271,0.88892 -1.90043,2.34489 -0.78163,1.86978 -0.78163,4.15336 0,2.23761 0.56707,4.09206 0.56706,1.83913 1.77782,2.78935 1.21076,0.93489 3.12652,0.93489 1.57858,0 2.89662,-0.68968 1.31804,-0.68967 2.77402,-2.37554 v 1.44065 q -1.41,1.47131 -2.9426,2.13033 -1.51728,0.65902 -3.55565,0.65902 -2.66674,0 -4.75108,-1.07283 -2.06902,-1.07282 -3.20315,-3.08054 -1.13413,-2.02304 -1.13413,-4.29129 0,-2.39087 1.25674,-4.53652 1.25674,-2.14565 3.37174,-3.32575 2.13032,-1.19544 4.53651,-1.19544 1.7625,0 3.72423,0.76631 1.13413,0.44445 1.44065,0.44445 0.39848,0 0.67435,-0.27587 0.29119,-0.29119 0.38315,-0.93489 z"
           inkscape:connector-curvature="0" />
        <path
           id="path2833"
           style="font-style:normal;font-variant:normal;font-weight:bold;font-stretch:normal;font-size:31.38777351px;font-family:Aparajita;-inkscape-font-specification:'Aparajita, Bold';font-variant-ligatures:normal;font-variant-caps:normal;font-variant-numeric:normal;font-feature-settings:normal;text-align:start;writing-mode:lr-tb;text-anchor:start;fill:#ff0000;stroke-width:0.36782548px"
           d="m 263.862,595.62273 -0.62837,5.86988 h -14.85096 v -0.45978 h 0.55174 q 0.72033,0 1.16478,-0.26054 0.32185,-0.16859 0.49044,-0.58239 0.13793,-0.30652 0.13793,-1.56326 v -11.00411 q 0,-1.28739 -0.13793,-1.59391 -0.12261,-0.32185 -0.53642,-0.56707 -0.4138,-0.24521 -1.1188,-0.24521 h -0.55174 v -0.45978 h 8.91977 v 0.45978 h -0.73565 q -0.72032,0 -1.16478,0.26054 -0.32185,0.16859 -0.50576,0.59772 -0.13793,0.29119 -0.13793,1.54793 v 10.66694 q 0,1.27206 0.13793,1.62456 0.15326,0.3525 0.58239,0.53641 0.30652,0.10729 1.50195,0.10729 h 1.39468 q 1.33336,0 2.22227,-0.45979 0.88892,-0.4751 1.53261,-1.48662 0.6437,-1.01152 1.22609,-2.98859 z"
           inkscape:connector-curvature="0" />
        <path
           id="path2835"
           style="font-style:normal;font-variant:normal;font-weight:bold;font-stretch:normal;font-size:31.38777351px;font-family:Aparajita;-inkscape-font-specification:'Aparajita, Bold';font-variant-ligatures:normal;font-variant-caps:normal;font-variant-numeric:normal;font-feature-settings:normal;text-align:start;writing-mode:lr-tb;text-anchor:start;fill:#ff0000;stroke-width:0.36782548px"
           d="m 274.52894,584.3734 q 4.0001,0 6.49825,2.48283 2.49814,2.48282 2.49814,6.20705 0,3.18782 -1.86978,5.60934 -2.46749,3.20315 -6.97335,3.20315 -4.50587,0 -6.97336,-3.06522 -1.96174,-2.40619 -1.96174,-5.73194 0,-3.72424 2.5288,-6.20706 2.54413,-2.49815 6.25304,-2.49815 z m 0.13793,0.95022 q -2.28358,0 -3.47901,2.34489 -0.98087,1.91576 -0.98087,5.51738 0,4.2913 1.50195,6.32966 1.0575,1.44065 2.9426,1.44065 1.27207,0 2.115,-0.62837 1.08815,-0.78163 1.68587,-2.51347 0.61304,-1.73184 0.61304,-4.52119 0,-3.32575 -0.62837,-4.96564 -0.61304,-1.65522 -1.56326,-2.32956 -0.95021,-0.67435 -2.20695,-0.67435 z"
           inkscape:connector-curvature="0" />
        <path
           id="path2837"
           style="font-style:normal;font-variant:normal;font-weight:bold;font-stretch:normal;font-size:31.38777351px;font-family:Aparajita;-inkscape-font-specification:'Aparajita, Bold';font-variant-ligatures:normal;font-variant-caps:normal;font-variant-numeric:normal;font-feature-settings:normal;text-align:start;writing-mode:lr-tb;text-anchor:start;fill:#ff0000;stroke-width:0.36782548px"
           d="m 296.30727,584.3734 0.13793,5.57869 h -0.50576 q -0.3525,-2.09967 -1.76249,-3.37173 -1.39468,-1.27207 -3.01924,-1.27207 -1.25674,0 -1.99239,0.67435 -0.73565,0.67435 -0.73565,1.54793 0,0.55174 0.26055,0.98087 0.3525,0.58239 1.14945,1.14946 0.58239,0.4138 2.66673,1.44065 2.94261,1.44064 3.96945,2.72803 1.01152,1.28739 1.01152,2.94261 0,2.09967 -1.63988,3.61695 -1.62457,1.50195 -4.15337,1.50195 -0.78163,0 -1.48662,-0.16858 -0.705,-0.15326 -1.7625,-0.59772 -0.59772,-0.24522 -0.98087,-0.24522 -0.32185,0 -0.67435,0.24522 -0.3525,0.24522 -0.58239,0.75098 h -0.45978 v -6.31434 h 0.45978 q 0.55174,2.66673 2.09967,4.06141 1.54794,1.39467 3.32576,1.39467 1.37934,0 2.20695,-0.75098 0.82761,-0.75098 0.82761,-1.74717 0,-0.59772 -0.32185,-1.14946 -0.32184,-0.55173 -0.96554,-1.04217 -0.62837,-0.50576 -2.25293,-1.31804 -2.28358,-1.1188 -3.2951,-1.90043 -0.9962,-0.79696 -1.53261,-1.7625 -0.53641,-0.98087 -0.53641,-2.16097 0,-1.99239 1.4713,-3.40239 1.4713,-1.41 3.69358,-1.41 0.82761,0 1.57858,0.19924 0.5824,0.15326 1.41,0.55174 0.84294,0.39848 1.18011,0.39848 0.32185,0 0.50576,-0.18391 0.18391,-0.19924 0.33717,-0.96555 z"
           inkscape:connector-curvature="0" />
        <path
           id="path2839"
           style="font-style:normal;font-variant:normal;font-weight:bold;font-stretch:normal;font-size:31.38777351px;font-family:Aparajita;-inkscape-font-specification:'Aparajita, Bold';font-variant-ligatures:normal;font-variant-caps:normal;font-variant-numeric:normal;font-feature-settings:normal;text-align:start;writing-mode:lr-tb;text-anchor:start;fill:#ff0000;stroke-width:0.36782548px"
           d="m 305.36497,585.7221 v 6.82009 h 0.33717 q 1.59391,0 2.29891,-0.99619 0.72033,-1.01152 0.91956,-2.95793 h 0.47511 v 8.76651 h -0.47511 q -0.15326,-1.44065 -0.62836,-2.34489 -0.47511,-0.91956 -1.10348,-1.22608 -0.62837,-0.32185 -1.8238,-0.32185 v 4.7051 q 0,1.39467 0.10728,1.70119 0.12261,0.30652 0.44446,0.50576 0.32184,0.19924 1.04217,0.19924 h 0.99619 q 2.34489,0 3.75489,-1.08815 1.42532,-1.08815 2.03836,-3.31043 h 0.45979 l -0.76631,5.31814 h -14.45247 v -0.45978 h 0.55173 q 0.73566,0 1.18011,-0.26054 0.32185,-0.16859 0.49044,-0.58239 0.13793,-0.30652 0.13793,-1.56326 v -11.00411 q 0,-1.13413 -0.0613,-1.39467 -0.12261,-0.42913 -0.45979,-0.65902 -0.4751,-0.3525 -1.28739,-0.3525 h -0.55173 v -0.45978 h 14.00802 v 4.95031 h -0.47511 q -0.3525,-1.80847 -1.01152,-2.5901 -0.6437,-0.79696 -1.8238,-1.16478 -0.68968,-0.22989 -2.59011,-0.22989 z"
           inkscape:connector-curvature="0" />
        <path
           id="path2841"
           style="font-style:normal;font-variant:normal;font-weight:bold;font-stretch:normal;font-size:31.38777351px;font-family:Aparajita;-inkscape-font-specification:'Aparajita, Bold';font-variant-ligatures:normal;font-variant-caps:normal;font-variant-numeric:normal;font-feature-settings:normal;text-align:start;writing-mode:lr-tb;text-anchor:start;fill:#ff0000;stroke-width:0.36782548px"
           d="m 315.67941,601.49261 v -0.45978 h 0.55174 q 0.72033,0 1.10348,-0.22989 0.39847,-0.22989 0.58239,-0.61304 0.10728,-0.26054 0.10728,-1.56326 v -11.00411 q 0,-1.28739 -0.13793,-1.59391 -0.12261,-0.32185 -0.53642,-0.56707 -0.4138,-0.24521 -1.1188,-0.24521 h -0.55174 v -0.45978 h 7.47912 q 3.00391,0 4.82771,0.8276 2.2376,0.9962 3.38706,3.01924 1.14945,2.02304 1.14945,4.56716 0,1.77783 -0.56706,3.26445 -0.56706,1.48663 -1.4713,2.45217 -0.88891,0.96555 -2.06902,1.54794 -1.18011,0.58239 -2.8813,0.90423 -0.75098,0.15326 -2.37554,0.15326 z m 6.37564,-15.78584 v 13.05781 q 0,1.04217 0.092,1.27206 0.10728,0.22989 0.33717,0.3525 0.33718,0.18391 0.96555,0.18391 2.05369,0 3.14184,-1.39467 1.48663,-1.90043 1.48663,-5.90053 0,-3.21848 -1.01152,-5.14956 -0.81228,-1.50195 -2.06902,-2.03837 -0.88891,-0.38315 -2.94261,-0.38315 z"
           inkscape:connector-curvature="0" />
      </g>
      <path
         inkscape:connector-curvature="0"
         d="m 325.89259,771.1968 c -0.62826,0.16032 -1.25664,0.35582 -1.88235,0.55979 -0.81978,0.26562 -1.6206,0.60323 -2.41576,0.96848 -1.44885,0.69572 -2.89257,1.43301 -4.27738,2.25759 -0.3481,0.20727 -0.68732,0.42778 -1.03099,0.64168 -1.98283,1.29621 -3.82105,2.76722 -5.49911,4.33836 -0.35424,0.33165 -0.69333,0.67274 -1.03999,1.00911 -0.92383,0.9266 -1.82252,1.86767 -2.68739,2.82455 -0.0543,0.06 -0.10048,0.1235 -0.15259,0.18449 -1.08793,1.27338 -0.19465,0.2098 -1.16223,1.36904 -0.36709,0.44236 -0.73863,0.88295 -1.10709,1.32477 0,0 -0.76517,0.68124 -0.76517,0.68124 v 0 c 0.38484,-0.45631 0.77343,-0.91109 1.15609,-1.36828 1.62443,-1.93503 3.33102,-3.83941 5.17701,-5.66905 0.34771,-0.336 0.68802,-0.67665 1.04312,-1.00801 1.69408,-1.58082 3.54763,-3.05985 5.54258,-4.36916 0.34726,-0.21649 0.69026,-0.43926 1.04177,-0.64945 1.40909,-0.84261 2.87742,-1.5937 4.34221,-2.32891 0.80173,-0.37888 1.61157,-0.71797 2.44239,-0.98058 0.63896,-0.20675 1.27879,-0.40667 1.91902,-0.59927 0,0 -0.64414,0.81361 -0.64414,0.81361 z"
         id="path14953"
         style="opacity:1;fill:#000000;fill-opacity:1;stroke:none;stroke-width:0.16540934;stroke-linecap:round;stroke-linejoin:round;stroke-miterlimit:4;stroke-dasharray:none;stroke-opacity:1" />
      <g
         transform="translate(65.738226,1.0408405)"
         id="g2805">
        <circle
           style="opacity:1;fill:#ffffff;fill-opacity:1;stroke:none;stroke-width:0.5625;stroke-linecap:round;stroke-linejoin:round;stroke-miterlimit:4;stroke-dasharray:none;stroke-opacity:1"
           id="path2759-6"
           cx="294.64587"
           cy="737.64502"
           r="3.6072145" />
        <circle
           style="opacity:1;fill:url(#radialGradient2777);fill-opacity:1;stroke:none;stroke-width:0.5625;stroke-linecap:round;stroke-linejoin:round;stroke-miterlimit:4;stroke-dasharray:none;stroke-opacity:1"
           id="path2759"
           cx="294.64587"
           cy="737.64502"
           r="3.6072145" />
      </g>
    </g>
  </g>
  <metadata
     id="metadata220">
    <rdf:RDF>
      <cc:Work>
        <dc:format>image/svg+xml</dc:format>
        <dc:type
           rdf:resource="http://purl.org/dc/dcmitype/StillImage" />
        <cc:license
           rdf:resource="http://creativecommons.org/publicdomain/zero/1.0/" />
        <dc:publisher>
          <cc:Agent
             rdf:about="http://openclipart.org/">
            <dc:title>Openclipart</dc:title>
          </cc:Agent>
        </dc:publisher>
        <dc:title></dc:title>
        <dc:date>2011-03-08T22:13:42</dc:date>
        <dc:description>metallic safe</dc:description>
        <dc:source>https://openclipart.org/detail/126241/safe-by-rg1024</dc:source>
        <dc:creator>
          <cc:Agent>
            <dc:title>rg1024</dc:title>
          </cc:Agent>
        </dc:creator>
        <dc:subject>
          <rdf:Bag>
            <rdf:li>bank</rdf:li>
            <rdf:li>box</rdf:li>
            <rdf:li>guard</rdf:li>
            <rdf:li>money</rdf:li>
            <rdf:li>safe</rdf:li>
          </rdf:Bag>
        </dc:subject>
      </cc:Work>
      <cc:License
         rdf:about="http://creativecommons.org/publicdomain/zero/1.0/">
        <cc:permits
           rdf:resource="http://creativecommons.org/ns#Reproduction" />
        <cc:permits
           rdf:resource="http://creativecommons.org/ns#Distribution" />
        <cc:permits
           rdf:resource="http://creativecommons.org/ns#DerivativeWorks" />
      </cc:License>
    </rdf:RDF>
  </metadata>
</svg>
